<mxfile host="app.diagrams.net" agent="Mozilla/5.0 (Windows NT 10.0; Win64; x64) AppleWebKit/537.36 (KHTML, like Gecko) Chrome/131.0.0.0 Safari/537.36" version="25.0.3">
  <diagram id="C5RBs43oDa-KdzZeNtuy" name="Page-1">
    <mxGraphModel dx="1290" dy="557" grid="1" gridSize="10" guides="1" tooltips="1" connect="1" arrows="1" fold="1" page="1" pageScale="1" pageWidth="827" pageHeight="1169" math="0" shadow="0">
      <root>
        <mxCell id="WIyWlLk6GJQsqaUBKTNV-0" />
        <mxCell id="WIyWlLk6GJQsqaUBKTNV-1" parent="WIyWlLk6GJQsqaUBKTNV-0" />
        <mxCell id="v_XrKQqh2ISb6WwBTG4--0" value="START" style="ellipse;whiteSpace=wrap;html=1;" parent="WIyWlLk6GJQsqaUBKTNV-1" vertex="1">
          <mxGeometry x="299" y="50" width="120" height="80" as="geometry" />
        </mxCell>
        <mxCell id="GrrUtHPNcLgzee1q_JAk-2" value="Login" style="rounded=1;whiteSpace=wrap;html=1;fontSize=12;glass=0;strokeWidth=1;shadow=0;" vertex="1" parent="WIyWlLk6GJQsqaUBKTNV-1">
          <mxGeometry x="299" y="300" width="120" height="40" as="geometry" />
        </mxCell>
        <mxCell id="GrrUtHPNcLgzee1q_JAk-7" value="Punya akun" style="rhombus;whiteSpace=wrap;html=1;" vertex="1" parent="WIyWlLk6GJQsqaUBKTNV-1">
          <mxGeometry x="304" y="160" width="110" height="80" as="geometry" />
        </mxCell>
        <mxCell id="GrrUtHPNcLgzee1q_JAk-8" value="" style="endArrow=classic;html=1;rounded=0;exitX=0.5;exitY=1;exitDx=0;exitDy=0;" edge="1" parent="WIyWlLk6GJQsqaUBKTNV-1" source="v_XrKQqh2ISb6WwBTG4--0" target="GrrUtHPNcLgzee1q_JAk-7">
          <mxGeometry width="50" height="50" relative="1" as="geometry">
            <mxPoint x="210" y="280" as="sourcePoint" />
            <mxPoint x="260" y="230" as="targetPoint" />
          </mxGeometry>
        </mxCell>
        <mxCell id="GrrUtHPNcLgzee1q_JAk-9" value="" style="endArrow=classic;html=1;rounded=0;" edge="1" parent="WIyWlLk6GJQsqaUBKTNV-1">
          <mxGeometry width="50" height="50" relative="1" as="geometry">
            <mxPoint x="420" y="200" as="sourcePoint" />
            <mxPoint x="490" y="200" as="targetPoint" />
            <Array as="points">
              <mxPoint x="450" y="200" />
            </Array>
          </mxGeometry>
        </mxCell>
        <mxCell id="GrrUtHPNcLgzee1q_JAk-10" value="No" style="edgeLabel;html=1;align=center;verticalAlign=middle;resizable=0;points=[];" vertex="1" connectable="0" parent="GrrUtHPNcLgzee1q_JAk-9">
          <mxGeometry x="-0.2494" y="-3" relative="1" as="geometry">
            <mxPoint x="4" y="-3" as="offset" />
          </mxGeometry>
        </mxCell>
        <mxCell id="GrrUtHPNcLgzee1q_JAk-11" value="" style="endArrow=classic;html=1;rounded=0;exitX=0.5;exitY=1;exitDx=0;exitDy=0;entryX=0.5;entryY=0;entryDx=0;entryDy=0;" edge="1" parent="WIyWlLk6GJQsqaUBKTNV-1">
          <mxGeometry width="50" height="50" relative="1" as="geometry">
            <mxPoint x="359" y="240" as="sourcePoint" />
            <mxPoint x="359" y="300" as="targetPoint" />
            <Array as="points" />
          </mxGeometry>
        </mxCell>
        <mxCell id="GrrUtHPNcLgzee1q_JAk-12" value="Yes" style="edgeLabel;html=1;align=center;verticalAlign=middle;resizable=0;points=[];" vertex="1" connectable="0" parent="GrrUtHPNcLgzee1q_JAk-11">
          <mxGeometry x="-0.2494" y="-3" relative="1" as="geometry">
            <mxPoint x="4" y="-3" as="offset" />
          </mxGeometry>
        </mxCell>
        <mxCell id="GrrUtHPNcLgzee1q_JAk-15" value="Register" style="rounded=1;whiteSpace=wrap;html=1;fontSize=12;glass=0;strokeWidth=1;shadow=0;" vertex="1" parent="WIyWlLk6GJQsqaUBKTNV-1">
          <mxGeometry x="490" y="180" width="120" height="40" as="geometry" />
        </mxCell>
        <mxCell id="GrrUtHPNcLgzee1q_JAk-16" value="" style="endArrow=classic;html=1;rounded=0;exitX=0.5;exitY=1;exitDx=0;exitDy=0;" edge="1" parent="WIyWlLk6GJQsqaUBKTNV-1" source="GrrUtHPNcLgzee1q_JAk-15">
          <mxGeometry width="50" height="50" relative="1" as="geometry">
            <mxPoint x="520" y="300" as="sourcePoint" />
            <mxPoint x="420" y="320" as="targetPoint" />
            <Array as="points">
              <mxPoint x="550" y="320" />
            </Array>
          </mxGeometry>
        </mxCell>
        <mxCell id="GrrUtHPNcLgzee1q_JAk-17" value="" style="endArrow=classic;html=1;rounded=0;exitX=0.5;exitY=1;exitDx=0;exitDy=0;" edge="1" parent="WIyWlLk6GJQsqaUBKTNV-1" source="GrrUtHPNcLgzee1q_JAk-2">
          <mxGeometry width="50" height="50" relative="1" as="geometry">
            <mxPoint x="350" y="430" as="sourcePoint" />
            <mxPoint x="360" y="370" as="targetPoint" />
          </mxGeometry>
        </mxCell>
        <mxCell id="GrrUtHPNcLgzee1q_JAk-58" style="edgeStyle=orthogonalEdgeStyle;rounded=0;orthogonalLoop=1;jettySize=auto;html=1;exitX=1;exitY=0.5;exitDx=0;exitDy=0;entryX=0;entryY=0.5;entryDx=0;entryDy=0;" edge="1" parent="WIyWlLk6GJQsqaUBKTNV-1" source="GrrUtHPNcLgzee1q_JAk-18" target="GrrUtHPNcLgzee1q_JAk-56">
          <mxGeometry relative="1" as="geometry">
            <mxPoint x="480" y="370" as="targetPoint" />
            <Array as="points">
              <mxPoint x="450" y="390" />
              <mxPoint x="450" y="420" />
            </Array>
          </mxGeometry>
        </mxCell>
        <mxCell id="GrrUtHPNcLgzee1q_JAk-61" style="edgeStyle=orthogonalEdgeStyle;rounded=0;orthogonalLoop=1;jettySize=auto;html=1;exitX=1;exitY=0.5;exitDx=0;exitDy=0;entryX=0;entryY=0.5;entryDx=0;entryDy=0;" edge="1" parent="WIyWlLk6GJQsqaUBKTNV-1" source="GrrUtHPNcLgzee1q_JAk-18" target="GrrUtHPNcLgzee1q_JAk-60">
          <mxGeometry relative="1" as="geometry">
            <Array as="points">
              <mxPoint x="450" y="390" />
              <mxPoint x="450" y="370" />
            </Array>
          </mxGeometry>
        </mxCell>
        <mxCell id="GrrUtHPNcLgzee1q_JAk-71" style="edgeStyle=orthogonalEdgeStyle;rounded=0;orthogonalLoop=1;jettySize=auto;html=1;exitX=0.5;exitY=1;exitDx=0;exitDy=0;entryX=0.5;entryY=0;entryDx=0;entryDy=0;" edge="1" parent="WIyWlLk6GJQsqaUBKTNV-1" source="GrrUtHPNcLgzee1q_JAk-18" target="GrrUtHPNcLgzee1q_JAk-69">
          <mxGeometry relative="1" as="geometry" />
        </mxCell>
        <mxCell id="GrrUtHPNcLgzee1q_JAk-18" value="Home" style="rounded=1;whiteSpace=wrap;html=1;fontSize=12;glass=0;strokeWidth=1;shadow=0;" vertex="1" parent="WIyWlLk6GJQsqaUBKTNV-1">
          <mxGeometry x="299" y="370" width="120" height="40" as="geometry" />
        </mxCell>
        <mxCell id="GrrUtHPNcLgzee1q_JAk-19" value="" style="endArrow=classic;html=1;rounded=0;exitX=0;exitY=0.5;exitDx=0;exitDy=0;entryX=1;entryY=0.5;entryDx=0;entryDy=0;" edge="1" parent="WIyWlLk6GJQsqaUBKTNV-1" source="GrrUtHPNcLgzee1q_JAk-18" target="GrrUtHPNcLgzee1q_JAk-21">
          <mxGeometry width="50" height="50" relative="1" as="geometry">
            <mxPoint x="180" y="400" as="sourcePoint" />
            <mxPoint x="220" y="390" as="targetPoint" />
            <Array as="points">
              <mxPoint x="260" y="390" />
            </Array>
          </mxGeometry>
        </mxCell>
        <mxCell id="GrrUtHPNcLgzee1q_JAk-50" style="edgeStyle=orthogonalEdgeStyle;rounded=0;orthogonalLoop=1;jettySize=auto;html=1;exitX=0.5;exitY=1;exitDx=0;exitDy=0;entryX=0.5;entryY=0;entryDx=0;entryDy=0;" edge="1" parent="WIyWlLk6GJQsqaUBKTNV-1" source="GrrUtHPNcLgzee1q_JAk-21" target="GrrUtHPNcLgzee1q_JAk-47">
          <mxGeometry relative="1" as="geometry" />
        </mxCell>
        <mxCell id="GrrUtHPNcLgzee1q_JAk-21" value="Quiz" style="rounded=1;whiteSpace=wrap;html=1;fontSize=12;glass=0;strokeWidth=1;shadow=0;" vertex="1" parent="WIyWlLk6GJQsqaUBKTNV-1">
          <mxGeometry x="100" y="370" width="120" height="40" as="geometry" />
        </mxCell>
        <mxCell id="GrrUtHPNcLgzee1q_JAk-23" value="Course" style="rounded=1;whiteSpace=wrap;html=1;fontSize=12;glass=0;strokeWidth=1;shadow=0;" vertex="1" parent="WIyWlLk6GJQsqaUBKTNV-1">
          <mxGeometry x="486.5" y="460" width="120" height="40" as="geometry" />
        </mxCell>
        <mxCell id="GrrUtHPNcLgzee1q_JAk-25" value="" style="endArrow=classic;html=1;rounded=0;exitX=1;exitY=0.5;exitDx=0;exitDy=0;entryX=0;entryY=0.5;entryDx=0;entryDy=0;" edge="1" parent="WIyWlLk6GJQsqaUBKTNV-1" source="GrrUtHPNcLgzee1q_JAk-18" target="GrrUtHPNcLgzee1q_JAk-23">
          <mxGeometry width="50" height="50" relative="1" as="geometry">
            <mxPoint x="440" y="470" as="sourcePoint" />
            <mxPoint x="490" y="420" as="targetPoint" />
            <Array as="points">
              <mxPoint x="450" y="390" />
              <mxPoint x="450" y="480" />
            </Array>
          </mxGeometry>
        </mxCell>
        <mxCell id="GrrUtHPNcLgzee1q_JAk-26" value="" style="endArrow=classic;html=1;rounded=0;exitX=0.5;exitY=1;exitDx=0;exitDy=0;" edge="1" parent="WIyWlLk6GJQsqaUBKTNV-1" source="GrrUtHPNcLgzee1q_JAk-23">
          <mxGeometry width="50" height="50" relative="1" as="geometry">
            <mxPoint x="546.5" y="590" as="sourcePoint" />
            <mxPoint x="546.5" y="530" as="targetPoint" />
          </mxGeometry>
        </mxCell>
        <mxCell id="GrrUtHPNcLgzee1q_JAk-27" value="Playlist&lt;span style=&quot;color: rgba(0, 0, 0, 0); font-family: monospace; font-size: 0px; text-align: start; text-wrap-mode: nowrap;&quot;&gt;%3CmxGraphModel%3E%3Croot%3E%3CmxCell%20id%3D%220%22%2F%3E%3CmxCell%20id%3D%221%22%20parent%3D%220%22%2F%3E%3CmxCell%20id%3D%222%22%20value%3D%22Course%22%20style%3D%22rounded%3D1%3BwhiteSpace%3Dwrap%3Bhtml%3D1%3BfontSize%3D12%3Bglass%3D0%3BstrokeWidth%3D1%3Bshadow%3D0%3B%22%20vertex%3D%221%22%20parent%3D%221%22%3E%3CmxGeometry%20x%3D%22480%22%20y%3D%22370%22%20width%3D%22120%22%20height%3D%2240%22%20as%3D%22geometry%22%2F%3E%3C%2FmxCell%3E%3C%2Froot%3E%3C%2FmxGraphModel%3E&lt;/span&gt;" style="rounded=1;whiteSpace=wrap;html=1;fontSize=12;glass=0;strokeWidth=1;shadow=0;" vertex="1" parent="WIyWlLk6GJQsqaUBKTNV-1">
          <mxGeometry x="486.5" y="530" width="120" height="40" as="geometry" />
        </mxCell>
        <mxCell id="GrrUtHPNcLgzee1q_JAk-36" style="edgeStyle=orthogonalEdgeStyle;rounded=0;orthogonalLoop=1;jettySize=auto;html=1;exitX=0.5;exitY=1;exitDx=0;exitDy=0;entryX=0.5;entryY=0;entryDx=0;entryDy=0;" edge="1" parent="WIyWlLk6GJQsqaUBKTNV-1" source="GrrUtHPNcLgzee1q_JAk-28">
          <mxGeometry relative="1" as="geometry">
            <mxPoint x="546.5" y="660" as="targetPoint" />
          </mxGeometry>
        </mxCell>
        <mxCell id="GrrUtHPNcLgzee1q_JAk-28" value="Watch Video" style="rounded=1;whiteSpace=wrap;html=1;fontSize=12;glass=0;strokeWidth=1;shadow=0;" vertex="1" parent="WIyWlLk6GJQsqaUBKTNV-1">
          <mxGeometry x="486.5" y="600" width="120" height="40" as="geometry" />
        </mxCell>
        <mxCell id="GrrUtHPNcLgzee1q_JAk-30" value="" style="endArrow=classic;html=1;rounded=0;entryX=0.5;entryY=0;entryDx=0;entryDy=0;" edge="1" parent="WIyWlLk6GJQsqaUBKTNV-1" source="GrrUtHPNcLgzee1q_JAk-27" target="GrrUtHPNcLgzee1q_JAk-28">
          <mxGeometry width="50" height="50" relative="1" as="geometry">
            <mxPoint x="546.5" y="580" as="sourcePoint" />
            <mxPoint x="556.5" y="540" as="targetPoint" />
            <Array as="points" />
          </mxGeometry>
        </mxCell>
        <mxCell id="GrrUtHPNcLgzee1q_JAk-39" style="edgeStyle=orthogonalEdgeStyle;rounded=0;orthogonalLoop=1;jettySize=auto;html=1;exitX=1;exitY=0.5;exitDx=0;exitDy=0;entryX=1;entryY=0.5;entryDx=0;entryDy=0;" edge="1" parent="WIyWlLk6GJQsqaUBKTNV-1" target="GrrUtHPNcLgzee1q_JAk-27">
          <mxGeometry relative="1" as="geometry">
            <mxPoint x="646.5" y="550" as="targetPoint" />
            <mxPoint x="586.5" y="700.0000000000002" as="sourcePoint" />
            <Array as="points">
              <mxPoint x="647.5" y="700" />
              <mxPoint x="647.5" y="550" />
            </Array>
          </mxGeometry>
        </mxCell>
        <mxCell id="GrrUtHPNcLgzee1q_JAk-40" value="No" style="edgeLabel;html=1;align=center;verticalAlign=middle;resizable=0;points=[];" vertex="1" connectable="0" parent="GrrUtHPNcLgzee1q_JAk-39">
          <mxGeometry x="-0.781" y="-3" relative="1" as="geometry">
            <mxPoint x="-1" y="-3" as="offset" />
          </mxGeometry>
        </mxCell>
        <mxCell id="GrrUtHPNcLgzee1q_JAk-78" style="edgeStyle=orthogonalEdgeStyle;rounded=0;orthogonalLoop=1;jettySize=auto;html=1;exitX=0;exitY=0.5;exitDx=0;exitDy=0;" edge="1" parent="WIyWlLk6GJQsqaUBKTNV-1" source="GrrUtHPNcLgzee1q_JAk-32" target="GrrUtHPNcLgzee1q_JAk-67">
          <mxGeometry relative="1" as="geometry" />
        </mxCell>
        <mxCell id="GrrUtHPNcLgzee1q_JAk-80" value="Yes" style="edgeLabel;html=1;align=center;verticalAlign=middle;resizable=0;points=[];" vertex="1" connectable="0" parent="GrrUtHPNcLgzee1q_JAk-78">
          <mxGeometry x="-0.1083" relative="1" as="geometry">
            <mxPoint as="offset" />
          </mxGeometry>
        </mxCell>
        <mxCell id="GrrUtHPNcLgzee1q_JAk-32" value="Done?" style="rhombus;whiteSpace=wrap;html=1;" vertex="1" parent="WIyWlLk6GJQsqaUBKTNV-1">
          <mxGeometry x="502.5" y="660" width="80" height="80" as="geometry" />
        </mxCell>
        <mxCell id="GrrUtHPNcLgzee1q_JAk-77" style="edgeStyle=orthogonalEdgeStyle;rounded=0;orthogonalLoop=1;jettySize=auto;html=1;exitX=1;exitY=0.5;exitDx=0;exitDy=0;entryX=0;entryY=0.5;entryDx=0;entryDy=0;" edge="1" parent="WIyWlLk6GJQsqaUBKTNV-1" source="GrrUtHPNcLgzee1q_JAk-43" target="GrrUtHPNcLgzee1q_JAk-67">
          <mxGeometry relative="1" as="geometry" />
        </mxCell>
        <mxCell id="GrrUtHPNcLgzee1q_JAk-79" value="Yes" style="edgeLabel;html=1;align=center;verticalAlign=middle;resizable=0;points=[];" vertex="1" connectable="0" parent="GrrUtHPNcLgzee1q_JAk-77">
          <mxGeometry x="-0.1027" y="1" relative="1" as="geometry">
            <mxPoint y="1" as="offset" />
          </mxGeometry>
        </mxCell>
        <mxCell id="GrrUtHPNcLgzee1q_JAk-81" style="edgeStyle=orthogonalEdgeStyle;rounded=0;orthogonalLoop=1;jettySize=auto;html=1;exitX=1;exitY=0;exitDx=0;exitDy=0;entryX=0;entryY=0.25;entryDx=0;entryDy=0;" edge="1" parent="WIyWlLk6GJQsqaUBKTNV-1" source="GrrUtHPNcLgzee1q_JAk-43" target="GrrUtHPNcLgzee1q_JAk-18">
          <mxGeometry relative="1" as="geometry" />
        </mxCell>
        <mxCell id="GrrUtHPNcLgzee1q_JAk-82" value="No" style="edgeLabel;html=1;align=center;verticalAlign=middle;resizable=0;points=[];" vertex="1" connectable="0" parent="GrrUtHPNcLgzee1q_JAk-81">
          <mxGeometry x="-0.8415" y="3" relative="1" as="geometry">
            <mxPoint y="3" as="offset" />
          </mxGeometry>
        </mxCell>
        <mxCell id="GrrUtHPNcLgzee1q_JAk-43" value="Done?" style="rhombus;whiteSpace=wrap;html=1;" vertex="1" parent="WIyWlLk6GJQsqaUBKTNV-1">
          <mxGeometry x="120" y="660" width="80" height="80" as="geometry" />
        </mxCell>
        <mxCell id="GrrUtHPNcLgzee1q_JAk-51" style="edgeStyle=orthogonalEdgeStyle;rounded=0;orthogonalLoop=1;jettySize=auto;html=1;exitX=0.5;exitY=1;exitDx=0;exitDy=0;entryX=0.5;entryY=0;entryDx=0;entryDy=0;" edge="1" parent="WIyWlLk6GJQsqaUBKTNV-1" source="GrrUtHPNcLgzee1q_JAk-47" target="GrrUtHPNcLgzee1q_JAk-43">
          <mxGeometry relative="1" as="geometry" />
        </mxCell>
        <mxCell id="GrrUtHPNcLgzee1q_JAk-47" value="Hasil" style="rounded=1;whiteSpace=wrap;html=1;fontSize=12;glass=0;strokeWidth=1;shadow=0;" vertex="1" parent="WIyWlLk6GJQsqaUBKTNV-1">
          <mxGeometry x="100" y="480" width="120" height="40" as="geometry" />
        </mxCell>
        <mxCell id="GrrUtHPNcLgzee1q_JAk-76" style="edgeStyle=orthogonalEdgeStyle;rounded=0;orthogonalLoop=1;jettySize=auto;html=1;exitX=0.5;exitY=1;exitDx=0;exitDy=0;entryX=0.5;entryY=0;entryDx=0;entryDy=0;" edge="1" parent="WIyWlLk6GJQsqaUBKTNV-1" source="GrrUtHPNcLgzee1q_JAk-56" target="GrrUtHPNcLgzee1q_JAk-23">
          <mxGeometry relative="1" as="geometry" />
        </mxCell>
        <mxCell id="GrrUtHPNcLgzee1q_JAk-56" value="About" style="rounded=1;whiteSpace=wrap;html=1;fontSize=12;glass=0;strokeWidth=1;shadow=0;" vertex="1" parent="WIyWlLk6GJQsqaUBKTNV-1">
          <mxGeometry x="482.5" y="400" width="120" height="40" as="geometry" />
        </mxCell>
        <mxCell id="GrrUtHPNcLgzee1q_JAk-64" style="edgeStyle=orthogonalEdgeStyle;rounded=0;orthogonalLoop=1;jettySize=auto;html=1;exitX=1;exitY=0.5;exitDx=0;exitDy=0;entryX=0;entryY=0.5;entryDx=0;entryDy=0;" edge="1" parent="WIyWlLk6GJQsqaUBKTNV-1" source="GrrUtHPNcLgzee1q_JAk-60" target="GrrUtHPNcLgzee1q_JAk-63">
          <mxGeometry relative="1" as="geometry" />
        </mxCell>
        <mxCell id="GrrUtHPNcLgzee1q_JAk-60" value="Teacher" style="rounded=1;whiteSpace=wrap;html=1;fontSize=12;glass=0;strokeWidth=1;shadow=0;" vertex="1" parent="WIyWlLk6GJQsqaUBKTNV-1">
          <mxGeometry x="486.5" y="350" width="120" height="40" as="geometry" />
        </mxCell>
        <mxCell id="GrrUtHPNcLgzee1q_JAk-66" style="edgeStyle=orthogonalEdgeStyle;rounded=0;orthogonalLoop=1;jettySize=auto;html=1;exitX=0.5;exitY=1;exitDx=0;exitDy=0;entryX=1;entryY=0.25;entryDx=0;entryDy=0;" edge="1" parent="WIyWlLk6GJQsqaUBKTNV-1" source="GrrUtHPNcLgzee1q_JAk-63" target="GrrUtHPNcLgzee1q_JAk-27">
          <mxGeometry relative="1" as="geometry">
            <mxPoint x="710" y="540" as="targetPoint" />
          </mxGeometry>
        </mxCell>
        <mxCell id="GrrUtHPNcLgzee1q_JAk-63" value="Teacher Profile" style="rounded=1;whiteSpace=wrap;html=1;fontSize=12;glass=0;strokeWidth=1;shadow=0;" vertex="1" parent="WIyWlLk6GJQsqaUBKTNV-1">
          <mxGeometry x="650" y="350" width="120" height="40" as="geometry" />
        </mxCell>
        <mxCell id="GrrUtHPNcLgzee1q_JAk-67" value="END" style="ellipse;whiteSpace=wrap;html=1;" vertex="1" parent="WIyWlLk6GJQsqaUBKTNV-1">
          <mxGeometry x="294" y="660" width="120" height="80" as="geometry" />
        </mxCell>
        <mxCell id="GrrUtHPNcLgzee1q_JAk-72" style="edgeStyle=orthogonalEdgeStyle;rounded=0;orthogonalLoop=1;jettySize=auto;html=1;exitX=0.5;exitY=1;exitDx=0;exitDy=0;entryX=0.5;entryY=0;entryDx=0;entryDy=0;" edge="1" parent="WIyWlLk6GJQsqaUBKTNV-1" source="GrrUtHPNcLgzee1q_JAk-69" target="GrrUtHPNcLgzee1q_JAk-70">
          <mxGeometry relative="1" as="geometry" />
        </mxCell>
        <mxCell id="GrrUtHPNcLgzee1q_JAk-69" value="User Profile" style="rounded=1;whiteSpace=wrap;html=1;fontSize=12;glass=0;strokeWidth=1;shadow=0;" vertex="1" parent="WIyWlLk6GJQsqaUBKTNV-1">
          <mxGeometry x="299" y="440" width="120" height="40" as="geometry" />
        </mxCell>
        <mxCell id="GrrUtHPNcLgzee1q_JAk-75" style="edgeStyle=orthogonalEdgeStyle;rounded=0;orthogonalLoop=1;jettySize=auto;html=1;exitX=0.5;exitY=1;exitDx=0;exitDy=0;entryX=0;entryY=0.75;entryDx=0;entryDy=0;" edge="1" parent="WIyWlLk6GJQsqaUBKTNV-1" source="GrrUtHPNcLgzee1q_JAk-70" target="GrrUtHPNcLgzee1q_JAk-18">
          <mxGeometry relative="1" as="geometry" />
        </mxCell>
        <mxCell id="GrrUtHPNcLgzee1q_JAk-70" value="Update Profile" style="rounded=1;whiteSpace=wrap;html=1;fontSize=12;glass=0;strokeWidth=1;shadow=0;" vertex="1" parent="WIyWlLk6GJQsqaUBKTNV-1">
          <mxGeometry x="299" y="510" width="120" height="40" as="geometry" />
        </mxCell>
      </root>
    </mxGraphModel>
  </diagram>
</mxfile>
